# xmcd
#
# Track frame offsets:
#	150
#	12571
#	26391
#	36887
#	66358
#	78154
#	88525
#	115171
#	125717
#	140987
#	155833
#	170129
#	208725
#	221921
#	243992
#	265588
#
# Disc length: 3765 seconds
#
# Revision: 0
# Processed by: cddbd v1.5.2PL0 Copyright (c) Steve Scherf et al.
# Submitted via: audiograbber 1.83.01
#
DISCID=ef0eb310
DTITLE=Various Artist - Kings of Blues Harp
DYEAR=1960
DGENRE=Blues
TTITLE0=Biffy Boy Arnold - Riding the El
TTITLE1=Carry Bell - What my mama told me
TTITLE2=Sonny Terry - Woman's lover blues
TTITLE3=Mojo Buford - Mo's stroll
TTITLE4=Sonny Boy Williamson - Hidden charms
TTITLE5=Paul DeLay - I want to be loved
TTITLE6=Walter Horton and Carey Bett - Walter and Carey's jam
TTITLE7=James Cotton - Homework
TTITLE8=Junior Wells - Hoodoo man blues
TTITLE9=King Biscuit Boy - Done everything I can
TTITLE10=Paul Butterfield - Got my Mojo working
TTITLE11=Johnny Mars - Desert Island
TTITLE12=Little Walter - Backtrack
TTITLE13=Louisiana Red - Vivienne
TTITLE14=Walter Horton - It's not easy
TTITLE15=Charlie Sayles - Chromatic blues
EXTD=Year is a guesstimate - artist and track names correct
EXTT0=
EXTT1=
EXTT2=
EXTT3=
EXTT4=
EXTT5=
EXTT6=
EXTT7=
EXTT8=
EXTT9=
EXTT10=
EXTT11=
EXTT12=
EXTT13=
EXTT14=
EXTT15=
PLAYORDER=
